<svg width="537" height="356" viewBox="0 0 537 356" fill="none" xmlns="http://www.w3.org/2000/svg">
<path d="M23.0366 158.486L150.944 261.232C152.54 262.392 154.408 263.24 156.394 263.705C158.38 264.17 160.429 264.24 162.375 263.909L513.432 186.669C516.941 185.896 517.516 183.442 514.715 181.192L386.808 78.4456C385.214 77.2803 383.347 76.4301 381.359 75.9647C379.372 75.4992 377.321 75.432 375.376 75.7685L24.3192 153.009C20.8104 153.781 20.2358 156.235 23.0366 158.486Z" fill="#455A64"/>
<path d="M93.402 208.76C95.6174 210.364 98.2047 211.535 100.956 212.179C103.707 212.823 106.545 212.923 109.242 212.47C114.13 211.396 114.921 208.022 111.025 204.857C108.813 203.249 106.225 202.075 103.473 201.43C100.721 200.786 97.8811 200.689 95.1847 201.147C90.2888 202.254 89.4936 205.65 93.402 208.76Z" fill="#263238"/>
<path d="M153.65 261.865L25.7427 159.119C23.2359 157.099 23.438 154.928 26.0228 153.939C24.3972 154.534 22.9669 155.423 21.8251 156.55C20.6833 157.676 19.8556 159.013 19.3959 160.475L18.3519 164.933C18.0749 166.604 18.2738 168.34 18.9326 170C19.5914 171.66 20.6915 173.197 22.1437 174.487L150.051 277.234C151.634 278.41 153.513 279.247 155.51 279.667L159.099 264.343C157.1 263.909 155.224 263.056 153.65 261.865Z" fill="#37474F"/>
<path d="M509.823 202.023C511.7 201.515 513.372 200.628 514.702 199.433C516.032 198.239 516.982 196.771 517.475 195.149L518.519 190.691C518.761 189.176 518.615 187.608 518.089 186.09C517.563 184.573 516.671 183.141 515.471 181.889C517.361 183.926 516.578 185.961 513.437 186.647L162.375 263.909C160.434 264.257 158.379 264.173 156.403 263.666L152.794 279.078C154.77 279.585 156.825 279.669 158.766 279.321L509.823 202.023Z" fill="#263238"/>
<path d="M178.025 252.495L55.6136 154.109C53.9257 152.755 54.272 151.276 56.3832 150.823L352.835 85.5104C354.003 85.3111 355.234 85.3528 356.427 85.6321C357.62 85.9114 358.741 86.4205 359.699 87.1178L482.166 185.505C483.841 186.856 483.497 188.324 481.397 188.791L184.837 254.09C183.677 254.284 182.457 254.241 181.274 253.964C180.091 253.687 178.979 253.184 178.025 252.495Z" fill="white"/>
<path d="M131.107 202.581L149.004 198.638L144.245 194.82L126.351 198.752L131.107 202.581Z" fill="#FE9901"/>
<path d="M345.806 155.305L363.703 151.362L358.93 147.541L341.047 151.487L345.806 155.305Z" fill="#FE9901"/>
<path d="M381.584 147.427L399.481 143.484L394.722 139.665L376.827 143.598L381.584 147.427Z" fill="#FE9901"/>
<path d="M439.546 132.519C440.111 132.925 440.768 133.221 441.467 133.385C442.166 133.548 442.887 133.575 443.573 133.462C443.831 133.45 444.072 133.369 444.261 133.231C444.45 133.093 444.579 132.905 444.629 132.692C444.679 132.48 444.647 132.254 444.539 132.046C444.43 131.839 444.25 131.659 444.024 131.534C443.463 131.124 442.805 130.824 442.105 130.66C441.405 130.496 440.683 130.473 439.998 130.591C439.74 130.603 439.499 130.684 439.309 130.822C439.12 130.96 438.991 131.148 438.942 131.361C438.892 131.573 438.923 131.799 439.032 132.007C439.14 132.214 439.32 132.394 439.546 132.519Z" fill="#263238"/>
<path d="M442.432 149.151C443.556 149.967 444.869 150.562 446.265 150.889C447.662 151.216 449.103 151.266 450.471 151.034C452.946 150.458 453.343 148.76 451.374 147.178C450.251 146.363 448.938 145.768 447.541 145.441C446.145 145.114 444.704 145.064 443.335 145.296C440.869 145.839 440.464 147.57 442.432 149.151Z" fill="#263238"/>
<path d="M438.326 141.119C439.971 140.753 440.169 139.551 438.775 138.428L415.343 119.572C414.582 118.995 413.684 118.568 412.724 118.327C411.763 118.086 410.768 118.038 409.819 118.186C408.174 118.551 407.976 119.753 409.37 120.877L432.882 139.751C433.636 140.314 434.521 140.731 435.466 140.969C436.411 141.206 437.391 141.257 438.326 141.119Z" fill="#263238"/>
<path d="M160.952 176.987L177.502 172.857L172.974 169.423L156.426 173.543L160.952 176.987Z" fill="#FD9902"/>
<path d="M194.061 168.74L210.623 164.613L206.083 161.177L189.535 165.296L194.061 168.74Z" fill="#FD9902"/>
<path d="M188.47 164.521C187.23 170.556 180.632 176.816 173.704 178.602C170.021 179.524 166.993 178.955 165.164 177.317C164.438 176.599 163.892 175.77 163.56 174.884C163.229 173.999 163.12 173.079 163.241 172.184C163.698 172.107 164.148 172.01 164.59 171.894C171.503 170.18 178.107 163.889 179.356 157.813C179.454 157.365 179.513 156.909 179.533 156.448C180.562 156.228 181.649 156.194 182.727 156.35C183.805 156.505 184.849 156.845 185.793 157.35C188.09 158.72 189.141 161.258 188.47 164.521Z" fill="#263238"/>
<path d="M192.045 152.334L191.855 152.188C188.976 150.142 184.669 149.524 179.414 150.819C168.749 153.473 158.546 163.164 156.633 172.473C155.671 177.153 156.99 180.836 159.894 183.016C162.797 185.196 167.191 185.831 172.473 184.531C183.137 181.877 193.33 172.173 195.243 162.864C196.217 158.187 194.936 154.511 192.045 152.334ZM173.758 178.591C170.063 179.511 167.034 178.942 165.207 177.294C163.588 175.891 162.896 173.61 163.476 170.788C164.714 164.763 171.326 158.495 178.255 156.71C181.407 155.924 184.065 156.224 185.861 157.332C188.086 158.677 189.137 161.214 188.462 164.498C187.226 170.577 180.622 176.868 173.704 178.602L173.758 178.591Z" fill="#37474F"/>
<path d="M186.386 157.728L186.262 157.639C184.397 156.303 181.578 155.906 178.197 156.741C171.281 158.464 164.665 164.753 163.418 170.819C162.786 173.898 163.601 176.204 165.53 177.671C167.458 179.137 170.308 179.508 173.696 178.643C180.611 176.919 187.215 170.628 188.462 164.562C189.086 161.524 188.251 159.128 186.386 157.728ZM174.147 176.446C171.185 177.185 168.752 176.728 167.273 175.397C165.988 174.246 165.421 172.428 165.885 170.17C166.6 167.568 168.048 165.19 170.11 163.229C172.173 161.269 174.792 159.781 177.756 158.886C178.725 158.562 179.788 158.439 180.86 158.527C181.932 158.616 182.983 158.913 183.929 159.395C185.717 160.479 186.562 162.514 186.016 165.172C185.302 167.774 183.855 170.151 181.792 172.11C179.73 174.069 177.111 175.554 174.147 176.446Z" fill="#FD9902"/>
<path d="M227.173 160.483L243.732 156.367L239.207 152.923L222.645 157.05L227.173 160.483Z" fill="#FD9902"/>
<path d="M260.294 152.24L276.842 148.12L272.316 144.676L255.754 148.804L260.294 152.24Z" fill="#FD9902"/>
<path d="M293.403 143.993L309.951 139.874L305.425 136.43L288.863 140.557L293.403 143.993Z" fill="#FD9902"/>
<path d="M232.19 61.4244C232.383 61.2822 232.63 61.1991 232.895 61.1872C233.159 61.1753 233.428 61.2352 233.661 61.3583C233.894 61.4814 234.08 61.6612 234.192 61.8716C234.304 62.082 234.336 62.3121 234.283 62.5285C234.26 63.1326 234.066 63.7128 233.717 64.2213C233.368 64.7298 232.875 65.1522 232.277 65.4537C231.142 65.9585 230.199 65.4652 230.183 64.3496C230.208 63.7457 230.402 63.1659 230.751 62.6575C231.1 62.1491 231.593 61.7266 232.19 61.4244Z" fill="#FD9902"/>
<path d="M242.859 68.3451L233.772 61.4396L230.649 65.4081L239.771 72.3316L242.859 68.3451Z" fill="#FD9902"/>
<path d="M241.256 68.3043C242.389 67.8097 243.319 68.3004 243.347 69.4187C243.318 70.0207 243.121 70.5981 242.771 71.104C242.42 71.61 241.927 72.0303 241.331 72.331C240.196 72.8358 239.253 72.3426 239.237 71.2269C239.267 70.6235 239.466 70.0449 239.816 69.5374C240.167 69.0299 240.66 68.6076 241.256 68.3043Z" fill="#FD9902"/>
<path d="M310.413 124.705C310.371 124.91 310.333 125.095 310.29 125.3C310.206 125.71 310.12 126.131 310.033 126.552C308.175 125.432 305.517 125.132 302.365 125.917C295.449 127.641 288.833 133.93 287.586 139.995C287.008 142.808 287.704 145.068 289.317 146.502C288.741 146.699 288.151 146.871 287.549 147.015L286.917 147.142L284.053 152.234L274.92 145.49C272.043 143.305 270.748 139.637 271.705 134.977C273.618 125.669 283.809 115.975 294.475 113.311C299.747 111.998 304.136 112.654 307.055 114.826L316.004 121.457L316.193 121.603L310.413 124.705Z" fill="#455A64"/>
<path d="M316.2 121.508L316.011 121.362C313.131 119.316 308.824 118.698 303.569 119.993C292.905 122.647 282.702 132.338 280.789 141.647C279.827 146.327 281.145 150.01 284.049 152.19C286.953 154.37 291.347 155.006 296.628 153.706C307.293 151.052 317.485 141.348 319.398 132.039C320.397 127.366 319.079 123.683 316.2 121.508ZM297.913 147.766C294.218 148.686 291.19 148.117 289.363 146.468C287.743 145.066 287.052 142.784 287.632 139.962C288.87 133.937 295.482 127.669 302.41 125.884C305.562 125.098 308.22 125.399 310.078 126.519C312.303 127.864 313.354 130.401 312.679 133.685C311.406 139.756 304.777 146.042 297.864 147.755L297.913 147.766Z" fill="#37474F"/>
<path d="M312.646 133.721C311.406 139.756 304.808 146.016 297.88 147.801C294.197 148.724 291.169 148.155 289.34 146.517C288.614 145.799 288.068 144.969 287.736 144.084C287.405 143.199 287.296 142.278 287.417 141.383C287.874 141.306 288.324 141.209 288.766 141.093C295.679 139.38 302.283 133.089 303.532 127.013C303.63 126.565 303.689 126.109 303.709 125.648C304.738 125.428 305.825 125.394 306.903 125.549C307.981 125.705 309.025 126.045 309.969 126.55C312.241 127.915 313.321 130.437 312.646 133.721Z" fill="#263238"/>
<path d="M310.541 126.902L310.42 126.803C308.552 125.477 305.723 125.067 302.352 125.915C295.437 127.639 288.823 133.917 287.574 139.993C286.941 143.072 287.756 145.379 289.685 146.845C291.614 148.311 294.466 148.672 297.853 147.807C304.767 146.093 311.371 139.802 312.619 133.726C313.266 130.704 312.466 128.325 310.541 126.902ZM298.305 145.61C295.328 146.357 292.896 145.9 291.428 144.572C290.132 143.417 289.576 141.602 290.04 139.344C290.756 136.742 292.203 134.364 294.266 132.403C296.328 130.443 298.948 128.955 301.911 128.06C304.44 127.424 306.582 127.661 308.072 128.566C309.86 129.651 310.705 131.686 310.159 134.344C309.446 136.943 308.001 139.318 305.941 141.275C303.881 143.233 301.265 144.718 298.305 145.61Z" fill="#FD9902"/>
<path d="M290.544 132.377L321.792 124.593C325.421 123.681 316.607 112.189 308.758 109.924C304.456 108.581 299.93 108.015 295.486 108.266C295.486 108.266 300.232 115.97 298.44 119.42C296.648 122.871 290.544 132.377 290.544 132.377Z" fill="#FD9902"/>
<path d="M258.275 85.6007C258.275 85.6007 295.963 111.338 297.531 112.74C299.099 114.143 294.844 125.816 290.544 132.377C286.244 138.938 279.633 149.026 277.257 151.746C274.88 154.467 272.368 155.149 267.776 156.291L235.167 164.426L194.147 160.232L179.668 149.769L188.276 128.957C188.276 128.957 234.859 118.88 241.285 117.28C247.711 115.681 267.716 106.089 258.275 85.6007Z" fill="#FD9902"/>
<path opacity="0.2" d="M258.275 85.6007C258.275 85.6007 295.963 111.338 297.531 112.74C299.099 114.143 294.844 125.816 290.544 132.377C286.244 138.938 279.633 149.026 277.257 151.746C274.88 154.467 272.368 155.149 267.776 156.291L235.167 164.426L194.147 160.232L179.668 149.769L188.276 128.957C188.276 128.957 234.859 118.88 241.285 117.28C247.711 115.681 267.716 106.089 258.275 85.6007Z" fill="black"/>
<path d="M295.014 129.006C300.424 121.497 304.604 115.21 305.085 110.485C305.644 104.877 304.092 99.8835 293.647 95.3837C283.203 90.884 267.944 87.7911 267.944 87.7911L262.848 89.0651C262.848 89.0651 291.114 110.598 294.338 112.972C296.304 114.446 297.699 119.45 290.591 132.398L291.249 132.897C291.57 133.155 293.28 131.421 295.014 129.006Z" fill="#FD9902"/>
<path opacity="0.3" d="M295.014 129.006C300.424 121.497 304.604 115.21 305.085 110.485C305.644 104.877 304.092 99.8835 293.647 95.3837C283.203 90.884 267.944 87.7911 267.944 87.7911L262.848 89.0651C262.848 89.0651 291.114 110.598 294.338 112.972C296.304 114.446 297.699 119.45 290.591 132.398L291.249 132.897C291.57 133.155 293.28 131.421 295.014 129.006Z" fill="white"/>
<path d="M276.346 99.3479L281.91 97.9884C281.91 97.9884 284.611 83.3431 277.942 78.2823C271.273 73.2215 245.67 70.4737 245.67 70.4737L240.155 71.8434L276.346 99.3479Z" fill="#FD9902"/>
<path d="M263.429 78.7762C260.778 79.4404 260.395 81.3083 262.57 82.9534C263.805 83.8027 265.24 84.408 266.757 84.7199C268.275 85.0318 269.832 85.0413 271.302 84.7479C273.938 84.0915 274.324 82.2133 272.161 80.5707C270.923 79.7258 269.488 79.1233 267.972 78.8117C266.455 78.5 264.899 78.4879 263.429 78.7762Z" fill="#F0F0F0"/>
<path d="M269.714 87.3312C267.851 87.8041 267.579 89.1281 269.107 90.2871C269.981 90.8901 270.997 91.3197 272.072 91.5406C273.147 91.7616 274.25 91.7675 275.291 91.558C277.165 91.0979 277.437 89.7739 275.898 88.6021C275.022 88.0036 274.006 87.5768 272.932 87.3561C271.858 87.1353 270.756 87.1268 269.714 87.3312Z" fill="#F0F0F0"/>
<path d="M252.098 74.5116C250.224 74.9716 249.952 76.2956 251.49 77.4674C252.367 78.0659 253.383 78.4927 254.457 78.7134C255.531 78.9342 256.633 78.9427 257.674 78.7383C259.55 78.2679 259.822 76.944 258.282 75.7824C257.408 75.1794 256.392 74.7498 255.317 74.5289C254.242 74.3079 253.138 74.302 252.098 74.5116Z" fill="#F0F0F0"/>
<path d="M278.006 95.2822C279.141 94.7774 280.072 95.2681 280.1 96.3863C280.071 96.9899 279.873 97.5688 279.522 98.0764C279.172 98.5841 278.678 99.0062 278.081 99.3089C277.888 99.4511 277.641 99.5342 277.376 99.5461C277.112 99.558 276.843 99.4981 276.61 99.375C276.376 99.252 276.19 99.0722 276.078 98.8617C275.967 98.6513 275.935 98.4212 275.988 98.2048C276.013 97.6002 276.209 97.0199 276.56 96.5118C276.911 96.0037 277.406 95.5822 278.006 95.2822Z" fill="#FD9902"/>
<path d="M288.614 102.19L279.514 95.2818L276.404 99.2529L285.515 106.163L288.614 102.19Z" fill="#FD9902"/>
<path d="M286.998 102.147C287.192 102.005 287.439 101.922 287.703 101.91C287.968 101.898 288.236 101.958 288.47 102.081C288.703 102.204 288.889 102.384 289.001 102.594C289.113 102.804 289.145 103.035 289.092 103.251C289.066 103.855 288.869 104.435 288.518 104.943C288.167 105.451 287.672 105.873 287.073 106.174C285.938 106.678 285.01 106.177 284.98 105.069C285.008 104.466 285.205 103.886 285.556 103.379C285.907 102.871 286.401 102.449 286.998 102.147Z" fill="#FD9902"/>
<path d="M286.998 102.147C287.192 102.005 287.439 101.922 287.703 101.91C287.968 101.898 288.236 101.958 288.47 102.081C288.703 102.204 288.889 102.384 289.001 102.594C289.113 102.804 289.145 103.035 289.092 103.251C289.066 103.855 288.869 104.435 288.518 104.943C288.167 105.451 287.672 105.873 287.073 106.174C285.938 106.678 285.01 106.177 284.98 105.069C285.008 104.466 285.205 103.886 285.556 103.379C285.907 102.871 286.401 102.449 286.998 102.147Z" fill="black"/>
<path d="M186.261 155.51C186.219 155.715 186.181 155.9 186.139 156.105C186.055 156.516 185.968 156.936 185.882 157.357C184.024 156.237 181.365 155.937 178.275 156.735C171.36 158.459 164.743 164.748 163.497 170.813C162.919 173.625 163.615 175.886 165.228 177.32C164.652 177.517 164.061 177.689 163.459 177.833L162.827 177.96L159.964 183.052L150.831 176.308C147.954 174.123 146.658 170.455 147.616 165.795C149.529 156.486 159.719 146.793 170.386 144.128C175.657 142.816 180.047 143.472 182.965 145.644L191.915 152.275L192.104 152.421L186.261 155.51Z" fill="#455A64"/>
<path d="M159.504 133.035L147.519 153.153L161.112 163.477L173.341 143.548L159.504 133.035Z" fill="#FD9902"/>
<path opacity="0.2" d="M159.504 133.035L147.519 153.153L161.112 163.477L173.341 143.548L159.504 133.035Z" fill="black"/>
<path d="M159.504 133.035C159.504 133.035 166.813 140.816 173.341 143.548C181.902 147.18 196.061 150.293 201.035 151.614C208.638 153.637 214.453 154.821 217.341 154.569C221.077 154.267 231.489 151.647 234.369 150.934C239.884 149.564 243.966 140.551 230.657 135.121C221.63 131.589 212.264 128.822 202.706 126.863L159.504 133.035Z" fill="#FD9902"/>
<path d="M245.304 147.779C244.69 148.584 244.207 149.459 243.866 150.383C243.264 151.292 242.953 152.332 242.961 153.406C243.639 154.893 244.925 156.159 246.575 156.962C247.782 157.451 249.078 157.733 250.381 157.789C251.685 157.845 252.968 157.675 254.152 157.289C256.974 156.542 259.22 155.399 263.033 155.284C265.726 155.362 268.363 154.944 270.761 154.059C273.054 153.129 276.513 149.968 272.832 148.313C269.15 146.657 260.14 147.972 252.439 146.678L245.304 147.779Z" fill="#37474F"/>
<path d="M246.118 143.818L245.143 148.559C245.268 149.14 245.578 149.693 246.041 150.156C246.503 150.619 247.099 150.974 247.762 151.183C248.368 151.387 249.014 151.46 249.639 151.398C250.626 151.295 251.534 150.948 252.251 150.399C252.969 149.851 253.464 149.126 253.676 148.313L254.479 145.536L246.118 143.818Z" fill="#FFA8A7"/>
<path d="M263.028 116.732C261.815 122.633 254.568 147.736 254.568 147.736C254.568 147.736 251.029 150.218 245.341 145.84L249.073 116.891L263.028 116.732Z" fill="#37474F"/>
<path d="M224.713 135.065L246.447 129.669C247.331 129.483 248.119 129.092 248.726 128.539C249.334 127.986 249.737 127.292 249.894 126.532C250.05 125.772 249.952 124.975 249.612 124.227C249.272 123.48 248.702 122.81 247.964 122.29L234.672 112.199C233.914 111.679 233.034 111.309 232.103 111.118C231.173 110.926 230.218 110.92 229.316 111.098L207.582 116.494C206.702 116.684 205.917 117.077 205.313 117.63C204.708 118.183 204.306 118.876 204.15 119.634C203.994 120.393 204.09 121.188 204.428 121.935C204.765 122.682 205.332 123.352 206.066 123.874L219.358 133.965C220.116 134.484 220.996 134.854 221.926 135.046C222.857 135.237 223.812 135.244 224.713 135.065Z" fill="#FD9902"/>
<path d="M224.713 135.065L246.447 129.669C247.331 129.483 248.119 129.092 248.726 128.539C249.334 127.986 249.737 127.292 249.894 126.532C250.05 125.772 249.952 124.975 249.612 124.227C249.272 123.48 248.702 122.81 247.964 122.29L234.672 112.199C233.914 111.679 233.034 111.309 232.103 111.118C231.173 110.926 230.218 110.92 229.316 111.098L207.582 116.494C206.702 116.684 205.917 117.077 205.313 117.63C204.708 118.183 204.306 118.876 204.15 119.634C203.994 120.393 204.09 121.188 204.428 121.935C204.765 122.682 205.332 123.352 206.066 123.874L219.358 133.965C220.116 134.484 220.996 134.854 221.926 135.046C222.857 135.237 223.812 135.244 224.713 135.065Z" fill="white"/>
<path d="M207.055 119.06L220.347 129.151C221.105 129.671 221.985 130.041 222.916 130.232C223.846 130.423 224.801 130.43 225.703 130.252L247.437 124.856C247.778 124.831 248.094 124.716 248.34 124.527C248.586 124.337 248.75 124.083 248.808 123.8C248.866 123.517 248.816 123.219 248.665 122.948C248.513 122.677 248.268 122.447 247.964 122.29L234.672 112.199C233.914 111.679 233.034 111.309 232.103 111.118C231.173 110.926 230.218 110.92 229.316 111.098L207.582 116.494C207.241 116.519 206.925 116.634 206.679 116.823C206.432 117.012 206.269 117.266 206.211 117.55C206.153 117.833 206.203 118.131 206.354 118.402C206.506 118.672 206.751 118.903 207.055 119.06Z" fill="#FD9902"/>
<path d="M232.022 58.7266L227.746 66.8011L216.849 65.1287L221.621 53.701L232.022 58.7266Z" fill="#FFA8A7"/>
<path d="M243.864 54.4211C243.864 54.4211 244.354 58.3085 243.805 58.4096C243.006 58.3481 242.214 58.1853 241.455 57.9266L243.864 54.4211Z" fill="#F28F8F"/>
<path d="M244.182 42.3991C245.565 44.4484 246.577 47.5551 243.952 54.1183C241.085 61.295 239.25 61.8166 237.767 62.2605C235.829 62.8463 228.957 60.9099 227.235 59.3152C225.166 57.4031 222.447 52.1272 222.499 47.4847C222.562 42.0317 225.873 36.647 230.728 36.6071C237.56 36.5456 243.005 40.6597 244.182 42.3991Z" fill="#FFA8A7"/>
<path d="M220.037 55.8892C221.411 57.6692 224.757 58.7632 226.842 59.5339C228.926 60.3046 235.47 62.0236 238.227 58.5149C240.985 55.0061 240.227 51.9195 242.821 51.4683C245.414 51.0172 247.94 50.8945 248.672 50.5315C249.404 50.1685 250.739 43.7359 244.981 39.076C239.222 34.4162 229.511 31.6182 221.627 37.0473C215.631 41.2598 215.848 50.4287 220.037 55.8892Z" fill="#455A64"/>
<path d="M226.077 59.4302C227.721 59.8965 233.144 60.2942 235.111 58.8157C237.077 57.3372 238.385 54.2364 238.968 52.5913C239.126 51.9288 239.553 51.3484 240.177 50.9458C240.801 50.5432 241.585 50.3424 242.401 50.3765C244.083 50.2836 247.903 49.5711 247.903 49.5711L248.067 48.7706C249.216 48.9449 250.357 49.1792 251.481 49.4721C252.2 49.7375 251.604 50.5671 249.562 50.971C247.519 51.3749 242.048 51.8443 241.148 52.205C240.249 52.5658 239.425 54.6962 238.311 56.9169C237.197 59.1375 234.522 62.246 226.077 59.4302Z" fill="#37474F"/>
<path d="M238.921 72.1996L245.711 70.5249C246.61 69.1587 245.812 68.2138 244.111 67.9605C242.41 67.7072 243.208 66.4592 242.259 65.8685C241.016 65.0782 240.191 65.208 239.633 64.8474C239.076 64.4868 238.938 63.8382 238.161 63.6037C234.681 62.5996 231.409 66.2914 231.409 66.2914L238.921 72.1996Z" fill="#F28F8F"/>
<path d="M189.199 101.26C189.199 101.26 218.83 95.6366 223.965 94.7985C229.1 93.9604 237.112 92.858 241.083 93.6739C242.612 94.0991 243.949 94.9648 244.847 96.1123C245.746 97.2597 246.146 98.6118 245.974 99.9204C245.618 101.911 245.075 103.863 244.349 105.758C236.422 106.259 228.422 106.285 220.408 105.834C208.704 105.14 189.199 101.26 189.199 101.26Z" fill="#37474F"/>
<path d="M193.502 95.3736C192.544 100.033 191.017 104.768 192.654 108.656C194.292 112.544 205.337 123.029 217.6 123.827C225.615 124.34 250.56 120.256 250.56 120.256C250.56 120.256 262.481 119.144 263.03 116.722C263.84 113.155 264.581 108.044 254.753 106.249C245.796 104.612 218.552 103.763 218.552 103.763L193.502 95.3736Z" fill="#455A64"/>
<path d="M208.72 60.0244C213.703 57.2296 216.623 57.5089 218.559 58.3773C222.993 60.4424 227.198 62.8692 231.108 65.6201C231.108 65.6201 226.78 78.4011 233.734 83.7666L229.533 104.211C229.533 104.211 228.842 106.38 225.025 107.895C221.658 109.225 214.539 109.805 206.638 107.604C197.249 104.99 193.502 95.3735 193.502 95.3735C193.502 95.3735 196.69 78.6036 199.403 72.2403C202.579 64.8168 206.999 60.9971 208.72 60.0244Z" fill="#455A64"/>
<path d="M233.53 84.7623C233.53 84.7623 229.487 80.7225 228.887 76.4275C228.887 76.4275 228.153 82.8231 233.04 87.1434L233.53 84.7623Z" fill="#37474F"/>
<path d="M274.824 103.303C277.029 103.835 279.328 103.722 281.335 102.983C281.335 102.983 284.2 99.9565 286.786 100.798C286.786 100.798 287.559 99.4167 286.57 98.7107C285.581 98.0046 285.083 98.0414 284.743 97.4368C284.404 96.8321 284.55 95.8674 282.571 95.4608C281.755 95.293 281.966 94.8335 280.027 94.2318C278.088 93.6301 275.355 97.0157 273.908 96.7184L274.824 103.303Z" fill="#FFA8A7"/>
<path d="M231.108 65.6201C237.719 67.8879 239.837 70.0666 241.92 72.4737C244.004 74.8808 256.553 90.5953 256.553 90.5953L274.433 96.5482C275.263 97.3934 275.791 98.4111 275.947 99.4693C276.322 101.408 275.253 103.22 274.453 103.537C274.453 103.537 256.086 100.704 252.628 99.4052C249.17 98.1062 233.474 84.7188 233.474 84.7188C232 83.3125 230.854 81.6917 230.105 79.9521C229.355 78.2126 229.017 76.3895 229.11 74.5906C229.232 68.1654 231.108 65.6201 231.108 65.6201Z" fill="#455A64"/>
<path d="M203.666 116.481L169.731 139.159C169.413 139.128 169.095 139.08 168.781 139.017C167.664 138.803 166.607 138.362 165.706 137.733L144.32 121.486L142.871 120.386C142.079 119.785 141.704 117.91 142.054 116.207L143.039 111.414C144.05 106.49 146.604 101.974 150.447 98.3187C154.289 94.6638 159.282 91.999 164.926 90.5922L196.038 82.8445L223.212 103.479L203.666 116.481Z" fill="#FD9902"/>
<g opacity="0.1">
<path d="M203.666 116.481L169.731 139.159C169.413 139.128 169.095 139.08 168.781 139.017C167.664 138.803 166.607 138.362 165.706 137.733L144.32 121.486L142.871 120.386C142.079 119.785 141.704 117.91 142.054 116.207L143.039 111.414C144.05 106.49 146.604 101.974 150.447 98.3187C154.289 94.6638 159.282 91.999 164.926 90.5922L196.038 82.8445L223.212 103.479L203.666 116.481Z" fill="black"/>
</g>
<path d="M191.966 124.303L223.173 103.482L195.999 82.8471L164.902 90.5871C160.878 91.5938 157.171 93.2452 153.975 95.4551L191.966 124.303Z" fill="#FD9902"/>
<path d="M218.862 124.46C218.512 126.164 217.44 127.741 216.463 127.979L214.697 128.418L172.09 139.034C171.32 139.205 170.506 139.245 169.694 139.151C169.376 139.12 169.058 139.073 168.744 139.01L170.176 132.041C171.187 127.116 173.743 122.599 177.588 118.944C181.432 115.289 186.429 112.626 192.076 111.222L195.593 110.351L223.175 103.472L218.862 124.46Z" fill="#FD9902"/>
<g opacity="0.2">
<path d="M218.862 124.46C218.512 126.164 217.44 127.741 216.463 127.979L214.697 128.418L172.09 139.034C171.32 139.205 170.506 139.245 169.694 139.151C169.376 139.12 169.058 139.073 168.744 139.01L170.176 132.041C171.187 127.116 173.743 122.599 177.588 118.944C181.432 115.289 186.429 112.626 192.076 111.222L195.593 110.351L223.175 103.472L218.862 124.46Z" fill="black"/>
</g>
<path d="M219.951 161.374L235.136 164.452L258.993 158.508L235.098 166.894L219.043 163.787L219.951 161.374Z" fill="#E0E0E0"/>
<path d="M179.423 171.722C179.423 171.722 208.541 168.785 211.073 168.257C214.087 167.43 216.999 166.394 219.78 165.158C220.386 164.716 220.757 164.087 220.821 163.394C220.885 162.701 220.636 161.993 220.124 161.41C220.124 161.41 209.079 158.701 206.073 158.843C204.395 158.915 177.235 160.479 177.235 160.479L179.423 171.722Z" fill="#E0E0E0"/>
<path d="M180.165 161.905C178.232 159.829 175.82 160.028 174.765 162.336C174.278 163.629 174.169 165.023 174.447 166.405C174.725 167.788 175.383 169.119 176.366 170.292C178.298 172.368 180.709 172.179 181.765 169.861C182.252 168.568 182.36 167.174 182.082 165.792C181.804 164.41 181.147 163.078 180.165 161.905Z" fill="#455A64"/>
<path d="M396.05 85.5743L396.908 85.1552C396.315 86.9432 396.026 88.7912 396.05 90.6456V93.2022C396.05 102.381 409.32 125.83 414.207 134.129C414.712 134.998 408.007 140.918 408.007 140.918L415.975 137.104C415.975 137.104 435.887 123.483 435.887 112.293V109.736C435.887 98.4935 426.973 85.1133 415.975 79.8429C410.419 77.192 405.406 77.0977 401.795 79.1095L394.219 82.7138L396.05 85.5743ZM406.012 94.1556C406.012 88.9167 410.469 86.7478 415.975 89.3882C415.52 92.7726 422.97 103.313 425.925 103.701C425.925 108.94 421.467 111.109 415.975 108.468C413.083 106.897 410.679 104.782 408.957 102.295C407.235 99.8083 406.243 97.0198 406.063 94.1556H406.012Z" fill="#FE9901"/>
<path d="M387.855 97.2991C388.082 108.531 408.638 140.918 408.638 140.918C408.638 140.918 428.286 127.067 428.071 115.834V113.278C427.844 102.046 418.664 88.7806 407.552 83.6674C396.441 78.5542 387.627 83.4998 387.855 94.7425V97.2991ZM397.83 98.1164C397.729 92.8774 402.148 90.6457 407.691 93.2023C410.621 94.7307 413.075 96.811 414.855 99.2742C416.634 101.737 417.688 104.514 417.932 107.379C418.045 112.618 413.626 114.849 408.07 112.293C405.144 110.761 402.692 108.68 400.913 106.218C399.134 103.755 398.078 100.98 397.83 98.1164Z" fill="#FE9901"/>
<path opacity="0.1" d="M387.855 97.2991C388.082 108.531 408.638 140.918 408.638 140.918C408.638 140.918 428.286 127.067 428.071 115.834V113.278C427.844 102.046 418.664 88.7806 407.552 83.6674C396.441 78.5542 387.627 83.4998 387.855 94.7425V97.2991ZM397.83 98.1164C397.729 92.8774 402.148 90.6457 407.691 93.2023C410.621 94.7307 413.075 96.811 414.855 99.2742C416.634 101.737 417.688 104.514 417.932 107.379C418.045 112.618 413.626 114.849 408.07 112.293C405.144 110.761 402.692 108.68 400.913 106.218C399.134 103.755 398.078 100.98 397.83 98.1164Z" fill="black"/>
</svg>
